<svg width="50" height="49" viewBox="0 0 50 49" fill="none" xmlns="http://www.w3.org/2000/svg">
<g filter="url(#filter0_d)">
<path d="M39.5056 2.43092C39.176 2.11905 38.7852 1.96259 38.3337 1.96259C37.8824 1.96259 37.4922 2.11905 37.1619 2.43092L33.7767 5.61143C31.9191 3.95137 29.7921 2.66509 27.3964 1.7532C25.001 0.84123 22.535 0.38533 20.0001 0.38533C15.2256 0.38533 11.0592 1.75329 7.49998 4.48981C3.94072 7.22599 1.59707 10.796 0.468567 15.2007V15.3731C0.468567 15.5868 0.550933 15.7718 0.715939 15.9277C0.880946 16.0839 1.07614 16.1619 1.30181 16.1619H6.48404C6.86614 16.1619 7.12637 15.9728 7.26538 15.595C7.99446 13.9517 8.45436 12.9904 8.64554 12.7109C9.86069 10.8374 11.4753 9.36639 13.4893 8.29813C15.5035 7.22996 17.6735 6.69566 19.9998 6.69566C23.4897 6.69566 26.5191 7.82151 29.0888 10.073L25.4944 13.4748C25.1654 13.7871 24.9999 14.1571 24.9999 14.5844C24.9999 15.0116 25.1653 15.3814 25.4944 15.6936C25.8247 16.006 26.2155 16.162 26.6669 16.162L38.3337 16.162C38.7851 16.162 39.1759 16.006 39.5056 15.6936C39.8352 15.3814 40 15.0117 40 14.5844V3.54028C40 3.11296 39.8362 2.74332 39.5056 2.43092Z" fill="white"/>
<path d="M38.5154 22.4732H33.5154C33.1334 22.4732 32.873 22.662 32.7344 23.0401C32.0056 24.6836 31.5452 25.6445 31.3545 25.924C30.1389 27.7971 28.5243 29.2686 26.5108 30.3368C24.4965 31.4053 22.3265 31.939 20.0001 31.939C18.3162 31.939 16.6928 31.6434 15.1305 31.052C13.568 30.4598 12.1702 29.6215 10.9377 28.5367L14.5056 25.1596C14.8353 24.8477 15.0003 24.4774 15.0003 24.0504C15.0003 23.6231 14.8353 23.2529 14.5056 22.9411C14.1757 22.6285 13.7852 22.4722 13.3338 22.4722H1.66685C1.21515 22.4722 0.824484 22.6285 0.494654 22.9411C0.164824 23.253 0 23.6232 0 24.0504L0 35.0945C0 35.5215 0.164824 35.8917 0.494745 36.2038C0.824849 36.5155 1.21552 36.6725 1.66694 36.6725C2.11826 36.6725 2.50875 36.5156 2.83876 36.2038L6.19808 33.0235C8.05584 34.6994 10.1697 35.9899 12.5396 36.8937C14.9094 37.7979 17.3617 38.2494 19.8962 38.2494C24.6535 38.2494 28.8027 36.8813 32.3443 34.1451C35.886 31.409 38.2124 27.8383 39.324 23.434C39.3414 23.4012 39.3496 23.3436 39.3496 23.2618C39.3496 23.0478 39.2669 22.8636 39.102 22.7068C38.9369 22.5515 38.7414 22.4732 38.5154 22.4732Z" fill="white"/>
</g>
<defs>
<filter id="filter0_d" x="0" y="0.38533" width="50" height="47.8641" filterUnits="userSpaceOnUse" color-interpolation-filters="sRGB">
<feFlood flood-opacity="0" result="BackgroundImageFix"/>
<feColorMatrix in="SourceAlpha" type="matrix" values="0 0 0 0 0 0 0 0 0 0 0 0 0 0 0 0 0 0 127 0"/>
<feOffset dx="5" dy="5"/>
<feGaussianBlur stdDeviation="2.5"/>
<feColorMatrix type="matrix" values="0 0 0 0 0 0 0 0 0 0 0 0 0 0 0 0 0 0 0.25 0"/>
<feBlend mode="normal" in2="BackgroundImageFix" result="effect1_dropShadow"/>
<feBlend mode="normal" in="SourceGraphic" in2="effect1_dropShadow" result="shape"/>
</filter>
</defs>
</svg>
