<svg width="43" height="38" viewBox="0 0 43 38" fill="none" xmlns="http://www.w3.org/2000/svg">
<path d="M34.9712 9.92693C34.5114 7.34053 33.1585 4.98012 31.0895 3.18889C28.7905 1.19678 25.8018 0.100281 22.6893 0.100281C20.2842 0.100281 17.941 0.753159 15.9338 1.98358C14.2626 3.00475 12.8744 4.38584 11.8929 6.00966C11.4684 5.93433 11.0263 5.89248 10.5842 5.89248C6.82624 5.89248 3.76681 8.78858 3.76681 12.3459C3.76681 12.8063 3.81986 13.2499 3.90829 13.6852C1.47666 15.3592 0 18.0544 0 20.9254C0 23.244 0.910755 25.4955 2.5731 27.2784C4.27966 29.1031 6.53444 30.1829 8.93954 30.3084C8.96607 30.3084 8.98376 30.3084 9.01028 30.3084H16.6146C17.2778 30.3084 17.8083 29.8062 17.8083 29.1784C17.8083 28.5507 17.2778 28.0485 16.6146 28.0485H9.04565C5.42916 27.8392 2.38742 24.5832 2.38742 20.917C2.38742 18.5483 3.73144 16.3385 5.8978 15.1416C6.40181 14.8654 6.61402 14.2878 6.41949 13.7689C6.24265 13.3169 6.15423 12.8398 6.15423 12.3292C6.15423 10.019 8.14374 8.1357 10.5842 8.1357C11.1059 8.1357 11.6188 8.2194 12.0962 8.3868C12.6798 8.58769 13.3253 8.33658 13.5906 7.80926C15.2441 4.48628 18.8164 2.3435 22.6981 2.3435C27.9151 2.3435 32.2213 6.04314 32.7164 10.9481C32.7695 11.4587 33.1762 11.8688 33.7068 11.9525C37.6416 12.5887 40.6126 16.0288 40.6126 19.9545C40.6126 24.1145 37.1553 27.7304 32.8933 28.0401H26.3765C25.7133 28.0401 25.1828 28.5423 25.1828 29.1701C25.1828 29.7978 25.7133 30.3001 26.3765 30.3001H32.9375C32.964 30.3001 32.9905 30.3001 33.0259 30.3001C35.7228 30.1159 38.2429 28.9441 40.1174 26.9854C41.9831 25.0436 43 22.5492 43 19.9545C42.9912 15.2588 39.6046 11.082 34.9712 9.92693Z" fill="white"/>
<path d="M28.6667 21.9968C29.1353 21.5532 29.1353 20.8417 28.6667 20.3981L22.3444 14.4134C22.1234 14.2041 21.8139 14.0786 21.5044 14.0786C21.1949 14.0786 20.8855 14.1958 20.6644 14.4134L14.3422 20.3981C13.8735 20.8417 13.8735 21.5532 14.3422 21.9968C14.5721 22.2144 14.8816 22.3316 15.1822 22.3316C15.4828 22.3316 15.7923 22.2228 16.0222 21.9968L20.3107 17.9373V36.5945C20.3107 37.2223 20.8413 37.7245 21.5044 37.7245C22.1676 37.7245 22.6981 37.2223 22.6981 36.5945V17.9373L26.9866 21.9968C27.4464 22.4404 28.198 22.4404 28.6667 21.9968Z" fill="white"/>
</svg>
